<svg width="0" height="0" class="hidden">
  <symbol version="1.1" id="logo" xmlns="http://www.w3.org/2000/svg" xmlns:xlink="http://www.w3.org/1999/xlink" xml:space="preserve" viewBox="0 0 512 512">
    <g>
      <path d="M202.803,342.03c-10.864,0-19.674,8.803-19.674,19.659c0,10.886,8.81,19.69,19.674,19.69
		c10.871,0,19.674-8.803,19.674-19.69C222.477,350.833,213.674,342.03,202.803,342.03z"></path>
      <path d="M309.197,342.03c-10.864,0-19.682,8.803-19.682,19.659c0,10.886,8.818,19.69,19.682,19.69
		c10.864,0,19.667-8.803,19.667-19.69C328.863,350.833,320.06,342.03,309.197,342.03z"></path>
      <rect x="216.962" y="415.197" width="79.932" height="18.462"></rect>
      <path d="M426.083,189.826c14.682-14.659,23.811-35.083,23.803-57.47c-0.015-44.894-36.371-81.25-81.265-81.265
		c-7.568,0-14.894,1.106-21.864,3.061c-7.272-13.416-17.363-25.053-29.56-34.053C300.113,7.484,278.856-0.008,256,0
		c-22.856-0.008-44.114,7.484-61.212,20.098c-12.197,9-22.273,20.637-29.553,34.053c-6.97-1.955-14.288-3.061-21.848-3.061
		c-44.902,0.008-81.272,36.371-81.272,81.265c-0.008,22.387,9.121,42.811,23.803,57.47c11.803,11.819,27.386,19.947,44.69,22.697
		v78.212c-13.189,21.94-20.886,47.523-20.886,74.978C109.72,446.5,175.212,512,256,512c80.78,0,146.273-65.5,146.273-146.288
		c0-27.455-7.697-53.038-20.886-74.978v-78.212C398.697,209.78,414.28,201.651,426.083,189.826z M256,476.59
		c-61.136,0-110.879-49.757-110.879-110.878c0-20.818,5.917-40.235,15.955-56.886h189.848c10.03,16.652,15.932,36.068,15.932,56.886
		C366.856,426.834,317.113,476.59,256,476.59z M110.537,99.515c8.463-8.424,19.962-13.59,32.849-13.598
		c8.212,0.008,15.818,2.121,22.53,5.856l18.44,10.265l6.575-20.052c4.478-13.66,13.175-25.485,24.53-33.856
		c11.379-8.371,25.296-13.296,40.538-13.296c15.243,0,29.151,4.924,40.523,13.296c11.363,8.371,20.06,20.197,24.53,33.856
		l6.576,20.068l18.447-10.28c6.72-3.735,14.318-5.848,22.546-5.856C381.5,85.924,393,91.091,401.454,99.515
		c8.432,8.455,13.598,19.963,13.598,32.841c0,12.871-5.166,24.379-13.598,32.833c-8.462,8.439-19.954,13.599-32.833,13.607
		c-0.666,0.007-1.75-0.068-3.356-0.19l-18.712-1.401v96.787H165.439v-96.795l-18.72,1.409c-1.599,0.122-2.682,0.197-3.333,0.19
		c-12.886-0.008-24.386-5.168-32.849-13.607c-8.424-8.454-13.59-19.962-13.598-32.833C96.947,119.478,102.113,107.97,110.537,99.515
		z"></path>
    </g>
  </symbol>
  <symbol fill="#000000" xmlns="http://www.w3.org/2000/svg" viewBox="0 0 1920 1920" id="facebook-boxed-svgrepo-com">
    <path d="M1168.737 487.897c44.672-41.401 113.824-36.889 118.9-36.663l289.354-.113 6.317-417.504L1539.65 22.9C1511.675 16.02 1426.053 0 1237.324 0 901.268 0 675.425 235.206 675.425 585.137v93.97H337v451.234h338.425V1920h451.234v-789.66h356.7l62.045-451.233H1126.66v-69.152c0-54.937 14.214-96.112 42.078-122.058" fill-rule="evenodd"></path>
  </symbol>
  <symbol fill="none" xmlns="http://www.w3.org/2000/svg" viewBox="0 0 24 24" id="instagram-svgrepo-com">
    <path d="M9 22H15C20 22 22 20 22 15V9C22 4 20 2 15 2H9C4 2 2 4 2 9V15C2 20 4 22 9 22Z" stroke="#292D32" stroke-width="1.5" stroke-linecap="round" stroke-linejoin="round"></path>
    <path d="M12 15.5C13.933 15.5 15.5 13.933 15.5 12C15.5 10.067 13.933 8.5 12 8.5C10.067 8.5 8.5 10.067 8.5 12C8.5 13.933 10.067 15.5 12 15.5Z" stroke="#292D32" stroke-width="1.5" stroke-linecap="round" stroke-linejoin="round"></path>
    <path d="M17.6361 7H17.6477" stroke="#292D32" stroke-width="2" stroke-linecap="round" stroke-linejoin="round"></path>
  </symbol>
  <symbol xmlns="http://www.w3.org/2000/svg" viewBox="0 0 48 48" id="letter-svgrepo-com">
    <path d="M0 0h48v48H0z" fill="none"></path>
    <g id="Shopicon">
      <path d="M42.371,8.8C41.705,8.304,40.89,8,40,8H8C7.11,8,6.295,8.304,5.629,8.8L24,27.172L42.371,8.8z"></path>
      <path d="M4,12.828V36c0,2.2,1.8,4,4,4h32c2.2,0,4-1.8,4-4V12.828l-20,20L4,12.828z"></path>
    </g>
  </symbol>
  <symbol enable-background="new 0 0 12 12" id="map-pin-svgrepo-com" version="1.1" xml:space="preserve" xmlns="http://www.w3.org/2000/svg" xmlns:xlink="http://www.w3.org/1999/xlink" viewBox="0 0 12 12">
    <path d="M6,0C3.2385864,0,1,2.2385864,1,5s2.5,5,5,7c2.5-2,5-4.2385864,5-7S8.7614136,0,6,0z M6,7  C4.8954468,7,4,6.1045532,4,5s0.8954468-2,2-2s2,0.8954468,2,2S7.1045532,7,6,7z" fill="#1D1D1B"></path>
  </symbol>
  <symbol fill="#000000" role="img" xmlns="http://www.w3.org/2000/svg" viewBox="0 0 24 24" id="viber-svgrepo-com">
    <title>Viber icon</title>
    <path d="M11.398.002C9.473.028 5.331.344 3.014 2.467 1.294 4.177.693 6.698.623 9.82c-.06 3.11-.13 8.95 5.5 10.541v2.42s-.038.97.602 1.17c.79.25 1.24-.499 1.99-1.299l1.4-1.58c3.85.32 6.8-.419 7.14-.529.78-.25 5.181-.811 5.901-6.652.74-6.031-.36-9.831-2.34-11.551l-.01-.002c-.6-.55-3-2.3-8.37-2.32 0 0-.396-.025-1.038-.016zm.067 1.697c.545-.003.88.02.88.02 4.54.01 6.711 1.38 7.221 1.84 1.67 1.429 2.528 4.856 1.9 9.892-.6 4.88-4.17 5.19-4.83 5.4-.28.09-2.88.73-6.152.52 0 0-2.439 2.941-3.199 3.701-.12.13-.26.17-.35.15-.13-.03-.17-.19-.16-.41l.02-4.019c-4.771-1.32-4.491-6.302-4.441-8.902.06-2.6.55-4.732 2-6.172 1.957-1.77 5.475-2.01 7.11-2.02zm.36 2.6a.299.299 0 0 0-.3.299.3.3 0 0 0 .3.3 5.631 5.631 0 0 1 4.03 1.59c1.09 1.06 1.621 2.48 1.641 4.34a.3.3 0 0 0 .3.3v-.009a.3.3 0 0 0 .3-.3 6.451 6.451 0 0 0-1.81-4.76c-1.19-1.16-2.692-1.76-4.462-1.76zm-3.954.69a.955.955 0 0 0-.615.12h-.012c-.41.24-.788.54-1.148.94-.27.32-.421.639-.461.949a1.24 1.24 0 0 0 .05.541l.02.01a13.722 13.722 0 0 0 1.2 2.6 15.383 15.383 0 0 0 2.32 3.171l.03.04.04.03.03.03.03.03a15.603 15.603 0 0 0 3.18 2.33c1.32.72 2.122 1.06 2.602 1.2v.01c.14.04.268.06.398.06a1.84 1.84 0 0 0 1.102-.472c.39-.35.7-.738.93-1.148v-.01c.23-.43.15-.841-.18-1.121a13.632 13.632 0 0 0-2.15-1.54c-.51-.28-1.03-.11-1.24.17l-.45.569c-.23.28-.65.24-.65.24l-.012.01c-3.12-.8-3.95-3.959-3.95-3.959s-.04-.43.25-.65l.56-.45c.27-.22.46-.74.17-1.25a13.522 13.522 0 0 0-1.54-2.15.843.843 0 0 0-.504-.3zm4.473.89a.3.3 0 0 0 .002.6 3.78 3.78 0 0 1 2.65 1.15 3.5 3.5 0 0 1 .9 2.57.3.3 0 0 0 .3.299l.01.012a.3.3 0 0 0 .3-.301c.03-1.19-.34-2.19-1.07-2.99-.73-.8-1.75-1.25-3.05-1.34a.3.3 0 0 0-.042 0zm.49 1.619a.305.305 0 0 0-.018.611c.99.05 1.47.55 1.53 1.58a.3.3 0 0 0 .3.29h.01a.3.3 0 0 0 .29-.32c-.07-1.34-.8-2.091-2.1-2.161a.305.305 0 0 0-.012 0z"></path>
  </symbol>
</svg>